<svg width="100%" height="100%" viewBox="0 0 400 600" xmlns="http://www.w3.org/2000/svg">
	<defs>
		<linearGradient id="bgGradient" x1="0%" y1="0%" x2="100%" y2="100%">
			<stop offset="0%" style="stop-color:#1C2526;stop-opacity:1" />
			<stop offset="100%" style="stop-color:#0F0F0F;stop-opacity:1" />
		</linearGradient>
		<linearGradient id="goldGradient" x1="0%" y1="0%" x2="100%" y2="100%">
			<stop offset="0%" style="stop-color:#FFD700;stop-opacity:1" />
			<stop offset="100%" style="stop-color:#D4A017;stop-opacity:1" />
		</linearGradient>
		<radialGradient id="iconGlow" cx="50%" cy="50%" r="50%">
			<stop offset="0%" style="stop-color:#FFD700;stop-opacity:0.6" />
			<stop offset="100%" style="stop-color:#1C2526;stop-opacity:0" />
		</radialGradient>
		<filter id="shadow">
			<feDropShadow dx="0" dy="2" stdDeviation="4" flood-color="#FFD700" flood-opacity="0.5"/>
		</filter>
	</defs>
	<rect width="400" height="600" fill="url(#bgGradient)" />
	<g transform="translate(200, 250)">
		<circle cx="0" cy="0" r="70" fill="url(#iconGlow)" />
		<path d="M0,0 m-40,-120 a40,40 0 1,0 80,0 a40,40 0 1,0 -80,0 z M0,-50 l10,20 l-20,0 l10,-20 M0,50 l-10,-20 l20,0 l-10,20 M50,0 l-20,-10 l0,20 l20,-10 M-50,0 l20,10 l0,-20 l-20,10" fill="url(#goldGradient)" filter="url(#shadow)" />
		<circle cx="0" cy="0" r="10" fill="#FFFFFF" />
	</g>
	<text x="200" y="400" font-family="'Playfair Display', serif" font-size="72" font-weight="700" fill="url(#goldGradient)" text-anchor="middle" letter-spacing="3" filter="url(#shadow)">
		OKKT
	</text>
	<text x="200" y="450" font-family="'Playfair Display', serif" font-size="22" fill="#E6B800" text-anchor="middle" font-style="italic">
		Travel Planner
	</text>
	<path d="M20,20 h360 v560 h-360 z" fill="none" stroke="url(#goldGradient)" stroke-width="4" opacity="0.5" />
	<path d="M0,500 C100,480 300,520 400,500 L400,600 L0,600 Z" fill="#E6B800" opacity="0.15" />
</svg>