<?xml version="1.0" encoding="utf-8"?>
<svg xmlns="http://www.w3.org/2000/svg" width="100%" height="100%" viewBox="0 0 1080 1080" preserveAspectRatio="xMidYMid meet">
	<defs>
		<linearGradient id="bgGradient" x1="0%" y1="0%" x2="100%" y2="100%">
			<stop offset="0%" style="stop-color:#1C2526;stop-opacity:1" />
			<stop offset="100%" style="stop-color:#2F2F2F;stop-opacity:1" />
		</linearGradient>
		<linearGradient id="goldGradient" x1="0%" y1="0%" x2="100%" y2="100%">
			<stop offset="0%" style="stop-color:#FFD700;stop-opacity:1" />
			<stop offset="100%" style="stop-color:#D4A017;stop-opacity:1" />
		</linearGradient>
		<radialGradient id="iconGlow" cx="50%" cy="50%" r="50%">
			<stop offset="0%" style="stop-color:#FFD700;stop-opacity:0.5" />
			<stop offset="100%" style="stop-color:#FFD700;stop-opacity:0" />
		</radialGradient>
		<filter id="shadow" x="-50%" y="-50%" width="200%" height="200%">
			<feDropShadow dx="0" dy="4" stdDeviation="8" flood-color="#FFD700" flood-opacity="0.5"/>
		</filter>
	</defs>

	<!-- Háttér -->
	<rect x="0" y="0" width="1080" height="1080" fill="url(#bgGradient)" />

	<!-- Ikon -->
	<g transform="translate(540, 540)">
		<circle cx="0" cy="-200" r="300" fill="url(#iconGlow)" />
		<path d="M0,0 m-120,-200 a120,120 0 1,0 240,0 a120,120 0 1,0 -240,0 z
             M0,-450 l40,80 l-80,0 l40,-80
             M0,50  l-40,-80 l80,0 l-40,80
             M250,-200 l-80,-40 l0,80 l80,-40
             M-250,-200 l80,40 l0,-80 l-80,40"
			  fill="url(#goldGradient)" filter="url(#shadow)" />

	</g>

	<!-- Szöveg -->
	<text x="540" y="800" font-family="Poppins, sans-serif" font-size="180" font-weight="900" fill="url(#goldGradient)" text-anchor="middle" letter-spacing="4" filter="url(#shadow)">
		OKKT
	</text>
	<text x="540" y="900" font-family="Poppins, sans-serif" font-size="60" fill="#E6B800" text-anchor="middle" font-style="italic">
		Trip Planner
	</text>
</svg>