<?xml version="1.0" encoding="iso-8859-1"?>
<!-- Uploaded to: SVG Repo, www.svgrepo.com, Generator: SVG Repo Mixer Tools -->
<svg height="800px" width="800px" version="1.1" id="Layer_1" xmlns="http://www.w3.org/2000/svg" xmlns:xlink="http://www.w3.org/1999/xlink" 
	 viewBox="0 0 512.001 512.001" xml:space="preserve">
<circle style="fill:#79C9DB;" cx="256.013" cy="255.983" r="255.983"/>
<path style="fill:#99DBFF;" d="M256.016,511.967c-141.376,0-255.983-114.608-255.983-255.983S114.641,0,256.016,0V511.967z"/>
<path style="fill:#924045;" d="M53.475,253.764c-8.031,0-14.545-6.513-14.545-14.545v-26.18c0-8.031,6.513-14.545,14.545-14.545
	s14.545,6.513,14.545,14.545v26.18C68.02,247.252,61.507,253.764,53.475,253.764z"/>
<path style="fill:#AC4045;" d="M2.706,219.122c-20.333,139.687,76.273,269.515,215.982,290.109
	c121.611,17.925,235.819-52.829,277.115-163.538C325.602,234.977,73.87,220.867,2.706,219.122z"/>
<path style="fill:#C26053;" d="M2.706,219.122c-20.333,139.687,76.273,269.515,215.982,290.109
	c12.309,1.814,24.79,2.609,37.324,2.46l0.007-260.985C145.024,225.257,43.783,220.13,2.706,219.122z"/>
<path style="fill:#D29500;" d="M127.742,359.053c0.784-37.18,8.679-82.035,33.579-126.027c-12.158-1.789-23.942-3.347-35.294-4.712
	C84.715,284.976,75.752,346.742,75.884,390.15L127.742,359.053z"/>
<g>
	<path style="fill:#6B3E35;" d="M457.591,334.945c-8.031,0-14.545-6.513-14.545-14.545v-65.168c0-8.031,6.513-14.544,14.545-14.544
		c8.031,0,14.544,6.513,14.544,14.544v65.168C472.136,328.434,465.624,334.945,457.591,334.945z"/>
	<path style="fill:#6B3E35;" d="M419.162,334.945c-8.031,0-14.544-6.513-14.544-14.545v-65.168c0-8.031,6.513-14.544,14.544-14.544
		s14.544,6.513,14.544,14.544v65.168C433.706,328.434,427.195,334.945,419.162,334.945z"/>
</g>
<circle style="fill:#FEAB00;" cx="349.069" cy="136.471" r="39.814"/>
<path style="fill:#D29500;" d="M47.996,405.14c39.026,54.415,99.212,93.555,170.691,104.089
	c139.864,20.615,269.959-76.055,290.574-215.919c0.416-2.82,0.767-5.635,1.086-8.446C250.723,265.703,99.776,363.425,47.996,405.14z
	"/>
<path style="fill:#FEAB00;" d="M47.996,405.14c39.026,54.415,99.212,93.555,170.691,104.089c12.545,1.849,25.012,2.755,37.327,2.771
	l-0.001-206.58C148.239,333.293,79.622,379.662,47.996,405.14z"/>
<path style="fill:#AC4045;" d="M261.153,304.124c-18.831,4.712-36.505,9.989-53.009,15.64
	c17.951,18.966,81.041,93.441,68.592,191.419c43.875-3.523,85.238-18.319,120.693-41.834
	C372.391,379.274,301.334,327.186,261.153,304.124z"/>
<path style="fill:#C26053;" d="M256.016,305.432c-16.917,4.374-32.878,9.199-47.872,14.332c9.384,9.915,31.105,35.001,47.92,70.685
	L256.016,305.432z"/>
</svg>